<?xml version="1.0" encoding="UTF-8" standalone="no"?>
<svg
   width="240"
   height="233.76199"
   viewBox="0 0 240 233.76199"
   fill="none"
   version="1.1"
   id="svg2"
   sodipodi:docname="homeassistant.svg"
   inkscape:version="1.4 (e7c3feb1, 2024-10-09)"
   xmlns:inkscape="http://www.inkscape.org/namespaces/inkscape"
   xmlns:sodipodi="http://sodipodi.sourceforge.net/DTD/sodipodi-0.dtd"
   xmlns="http://www.w3.org/2000/svg"
   xmlns:svg="http://www.w3.org/2000/svg">
  <defs
     id="defs2" />
  <sodipodi:namedview
     id="namedview2"
     pagecolor="#ffffff"
     bordercolor="#000000"
     borderopacity="0.25"
     inkscape:showpageshadow="2"
     inkscape:pageopacity="0.0"
     inkscape:pagecheckerboard="0"
     inkscape:deskcolor="#d1d1d1"
     inkscape:zoom="2.5225"
     inkscape:cx="119.92071"
     inkscape:cy="-62.041625"
     inkscape:window-width="1200"
     inkscape:window-height="1186"
     inkscape:window-x="0"
     inkscape:window-y="31"
     inkscape:window-maximized="0"
     inkscape:current-layer="svg2" />
  <path
     d="m 240,218.762 c 0,8.25 -6.75,15 -15,15 H 15 c -8.25,0 -15,-6.75 -15,-15 v -90 c 0,-8.25 4.77,-19.769 10.61,-25.609 L 109.39,4.3725 c 5.83,-5.83 15.38,-5.83 21.21,0 l 98.79,98.7895 c 5.83,5.83 10.61,17.36 10.61,25.61 v 90 z"
     fill="#f2f4f9"
     id="path1" />
  <path
     d="M 229.39,103.153 130.61,4.3725 c -5.83,-5.83 -15.38,-5.83 -21.21,0 L 10.61,103.153 C 4.78,108.983 0,120.512 0,128.762 v 90 c 0,8.25 6.75,15 15,15 h 92.27 l -40.63,-40.63 c -2.09,0.72 -4.32,1.13 -6.64,1.13 -11.3,0 -20.5,-9.2 -20.5,-20.5 0,-11.3 9.2,-20.5 20.5,-20.5 11.3,0 20.5,9.2 20.5,20.5 0,2.33 -0.41,4.56 -1.13,6.65 L 111,212.042 V 96.162 c -6.8,-3.34 -11.5,-10.32 -11.5,-18.39 0,-11.3 9.2,-20.5 20.5,-20.5 11.3,0 20.5,9.2 20.5,20.5 0,8.07 -4.7,15.05 -11.5,18.39 v 81.27 l 31.46,-31.46 c -0.62,-1.96 -0.96,-4.04 -0.96,-6.2 0,-11.3 9.2,-20.5 20.5,-20.5 11.3,0 20.5,9.2 20.5,20.5 0,11.3 -9.2,20.5 -20.5,20.5 -2.5,0 -4.88,-0.47 -7.09,-1.29 L 129,202.892 v 30.88 h 96 c 8.25,0 15,-6.75 15,-15 v -90 c 0,-8.25 -4.77,-19.77 -10.61,-25.61 z"
     fill="#18bcf2"
     id="path2" />
</svg>
